<mxfile host="app.diagrams.net" modified="2022-09-06T03:57:20.888Z" agent="5.0 (Macintosh; Intel Mac OS X 10_15_7) AppleWebKit/537.36 (KHTML, like Gecko) Chrome/105.0.0.0 Safari/537.36" etag="NZ97TmSrNYAWoU_oTjNW" version="20.2.7" type="github">
  <diagram id="DIGLBmIxfMBTLwVZg4zG" name="第 1 页">
    <mxGraphModel dx="2493" dy="794" grid="1" gridSize="10" guides="1" tooltips="1" connect="1" arrows="1" fold="1" page="1" pageScale="1" pageWidth="827" pageHeight="1169" math="0" shadow="0">
      <root>
        <mxCell id="0" />
        <mxCell id="1" parent="0" />
        <mxCell id="d3GLhMi2jsoCm6vwqvOL-1" value="聚合器API" style="rounded=1;whiteSpace=wrap;html=1;" parent="1" vertex="1">
          <mxGeometry x="-173" y="90" width="120" height="60" as="geometry" />
        </mxCell>
        <mxCell id="d3GLhMi2jsoCm6vwqvOL-2" value="manager" style="rounded=1;whiteSpace=wrap;html=1;" parent="1" vertex="1">
          <mxGeometry x="167" y="90" width="120" height="60" as="geometry" />
        </mxCell>
        <mxCell id="d3GLhMi2jsoCm6vwqvOL-10" style="edgeStyle=orthogonalEdgeStyle;rounded=0;orthogonalLoop=1;jettySize=auto;html=1;exitX=1;exitY=0.5;exitDx=0;exitDy=0;entryX=0;entryY=0.5;entryDx=0;entryDy=0;" parent="1" source="d3GLhMi2jsoCm6vwqvOL-8" target="d3GLhMi2jsoCm6vwqvOL-22" edge="1">
          <mxGeometry relative="1" as="geometry">
            <mxPoint x="157" y="320" as="targetPoint" />
          </mxGeometry>
        </mxCell>
        <mxCell id="d3GLhMi2jsoCm6vwqvOL-19" style="edgeStyle=orthogonalEdgeStyle;rounded=0;orthogonalLoop=1;jettySize=auto;html=1;exitX=0.5;exitY=0;exitDx=0;exitDy=0;" parent="1" source="d3GLhMi2jsoCm6vwqvOL-8" target="d3GLhMi2jsoCm6vwqvOL-15" edge="1">
          <mxGeometry relative="1" as="geometry" />
        </mxCell>
        <mxCell id="d3GLhMi2jsoCm6vwqvOL-34" value="" style="edgeStyle=orthogonalEdgeStyle;rounded=0;orthogonalLoop=1;jettySize=auto;html=1;" parent="1" source="d3GLhMi2jsoCm6vwqvOL-8" target="d3GLhMi2jsoCm6vwqvOL-33" edge="1">
          <mxGeometry relative="1" as="geometry" />
        </mxCell>
        <mxCell id="d3GLhMi2jsoCm6vwqvOL-8" value="node-task" style="rounded=1;whiteSpace=wrap;html=1;" parent="1" vertex="1">
          <mxGeometry x="-173" y="290" width="120" height="60" as="geometry" />
        </mxCell>
        <mxCell id="d3GLhMi2jsoCm6vwqvOL-9" value="定时任务监听deposite&lt;br&gt;" style="text;html=1;align=center;verticalAlign=middle;resizable=0;points=[];autosize=1;strokeColor=none;fillColor=none;" parent="1" vertex="1">
          <mxGeometry x="-257" y="220" width="140" height="30" as="geometry" />
        </mxCell>
        <mxCell id="d3GLhMi2jsoCm6vwqvOL-11" value="web3Singer、vault交互，创建node" style="text;html=1;strokeColor=none;fillColor=none;align=center;verticalAlign=middle;whiteSpace=wrap;rounded=0;" parent="1" vertex="1">
          <mxGeometry x="247" y="190" width="210" height="30" as="geometry" />
        </mxCell>
        <mxCell id="d3GLhMi2jsoCm6vwqvOL-14" value="返回depositData" style="text;html=1;align=center;verticalAlign=middle;resizable=0;points=[];autosize=1;strokeColor=none;fillColor=none;" parent="1" vertex="1">
          <mxGeometry x="-3" y="130" width="110" height="30" as="geometry" />
        </mxCell>
        <mxCell id="d3GLhMi2jsoCm6vwqvOL-15" value="存储pubkey，维护deposite状态" style="text;html=1;align=center;verticalAlign=middle;resizable=0;points=[];autosize=1;strokeColor=none;fillColor=none;" parent="1" vertex="1">
          <mxGeometry x="-208" y="160" width="190" height="30" as="geometry" />
        </mxCell>
        <mxCell id="d3GLhMi2jsoCm6vwqvOL-16" value="记来源，source&lt;br&gt;ethdo生成depositeData，并存储&lt;br&gt;pubkey、keystore另外存储" style="text;html=1;align=center;verticalAlign=middle;resizable=0;points=[];autosize=1;strokeColor=none;fillColor=none;" parent="1" vertex="1">
          <mxGeometry x="282" y="85" width="200" height="60" as="geometry" />
        </mxCell>
        <mxCell id="d3GLhMi2jsoCm6vwqvOL-18" value="network、address、source&lt;br&gt;生成key" style="text;html=1;align=center;verticalAlign=middle;resizable=0;points=[];autosize=1;strokeColor=none;fillColor=none;" parent="1" vertex="1">
          <mxGeometry x="-33" y="70" width="170" height="40" as="geometry" />
        </mxCell>
        <mxCell id="d3GLhMi2jsoCm6vwqvOL-21" value="network、pubkeys、source" style="text;html=1;align=center;verticalAlign=middle;resizable=0;points=[];autosize=1;strokeColor=none;fillColor=none;" parent="1" vertex="1">
          <mxGeometry x="257" y="220" width="170" height="30" as="geometry" />
        </mxCell>
        <mxCell id="d3GLhMi2jsoCm6vwqvOL-23" style="edgeStyle=orthogonalEdgeStyle;rounded=0;orthogonalLoop=1;jettySize=auto;html=1;exitX=0.5;exitY=0;exitDx=0;exitDy=0;entryX=0.5;entryY=1;entryDx=0;entryDy=0;" parent="1" source="d3GLhMi2jsoCm6vwqvOL-22" target="d3GLhMi2jsoCm6vwqvOL-2" edge="1">
          <mxGeometry relative="1" as="geometry" />
        </mxCell>
        <mxCell id="d3GLhMi2jsoCm6vwqvOL-22" value="node-service" style="rounded=0;whiteSpace=wrap;html=1;" parent="1" vertex="1">
          <mxGeometry x="167" y="290" width="120" height="60" as="geometry" />
        </mxCell>
        <mxCell id="d3GLhMi2jsoCm6vwqvOL-27" style="edgeStyle=orthogonalEdgeStyle;rounded=0;orthogonalLoop=1;jettySize=auto;html=1;exitX=1;exitY=0.3333333333333333;exitDx=0;exitDy=0;exitPerimeter=0;entryX=0;entryY=0.25;entryDx=0;entryDy=0;" parent="1" source="d3GLhMi2jsoCm6vwqvOL-26" target="d3GLhMi2jsoCm6vwqvOL-1" edge="1">
          <mxGeometry relative="1" as="geometry" />
        </mxCell>
        <mxCell id="d3GLhMi2jsoCm6vwqvOL-26" value="" style="shape=umlActor;verticalLabelPosition=bottom;verticalAlign=top;html=1;outlineConnect=0;" parent="1" vertex="1">
          <mxGeometry x="-403" y="85" width="30" height="60" as="geometry" />
        </mxCell>
        <mxCell id="d3GLhMi2jsoCm6vwqvOL-28" value="request" style="text;html=1;align=center;verticalAlign=middle;resizable=0;points=[];autosize=1;strokeColor=none;fillColor=none;" parent="1" vertex="1">
          <mxGeometry x="-333" y="75" width="60" height="30" as="geometry" />
        </mxCell>
        <mxCell id="d3GLhMi2jsoCm6vwqvOL-29" value="" style="shape=flexArrow;endArrow=classic;startArrow=classic;html=1;rounded=0;entryX=0;entryY=0.5;entryDx=0;entryDy=0;exitX=1;exitY=0.5;exitDx=0;exitDy=0;" parent="1" source="d3GLhMi2jsoCm6vwqvOL-1" target="d3GLhMi2jsoCm6vwqvOL-2" edge="1">
          <mxGeometry width="100" height="100" relative="1" as="geometry">
            <mxPoint x="-23" y="280" as="sourcePoint" />
            <mxPoint x="77" y="180" as="targetPoint" />
          </mxGeometry>
        </mxCell>
        <mxCell id="d3GLhMi2jsoCm6vwqvOL-32" value="创建验证者" style="text;html=1;align=center;verticalAlign=middle;resizable=0;points=[];autosize=1;strokeColor=none;fillColor=none;" parent="1" vertex="1">
          <mxGeometry x="17" y="290" width="80" height="30" as="geometry" />
        </mxCell>
        <mxCell id="d3GLhMi2jsoCm6vwqvOL-33" value="&lt;div style=&quot;&quot; data-line-index=&quot;0&quot; data-zone-id=&quot;0&quot;&gt;web3-exporter&lt;/div&gt;" style="whiteSpace=wrap;html=1;rounded=1;" parent="1" vertex="1">
          <mxGeometry x="-413" y="290" width="120" height="60" as="geometry" />
        </mxCell>
        <mxCell id="d3GLhMi2jsoCm6vwqvOL-35" value="pubkey反查" style="text;html=1;align=center;verticalAlign=middle;resizable=0;points=[];autosize=1;strokeColor=none;fillColor=none;" parent="1" vertex="1">
          <mxGeometry x="-273" y="290" width="90" height="30" as="geometry" />
        </mxCell>
        <mxCell id="5F6_HJQfYUysbNrUYwP5-1" value="&lt;font style=&quot;font-size: 24px;&quot;&gt;&lt;b&gt;keystore托管验证者流程&lt;/b&gt;&lt;/font&gt;" style="text;html=1;align=center;verticalAlign=middle;resizable=0;points=[];autosize=1;strokeColor=none;fillColor=none;" vertex="1" parent="1">
          <mxGeometry x="-240" y="440" width="290" height="40" as="geometry" />
        </mxCell>
        <mxCell id="5F6_HJQfYUysbNrUYwP5-8" value="" style="shape=actor;whiteSpace=wrap;html=1;fontSize=24;" vertex="1" parent="1">
          <mxGeometry x="-620" y="525" width="40" height="60" as="geometry" />
        </mxCell>
        <mxCell id="5F6_HJQfYUysbNrUYwP5-10" value="1.生成keystore和deposit&lt;br&gt;2.用deposit.json质押ETH" style="text;html=1;align=left;verticalAlign=middle;resizable=0;points=[];autosize=1;strokeColor=none;fillColor=none;fontSize=12;" vertex="1" parent="1">
          <mxGeometry x="-770" y="540" width="160" height="40" as="geometry" />
        </mxCell>
        <mxCell id="5F6_HJQfYUysbNrUYwP5-13" value="" style="endArrow=none;dashed=1;html=1;rounded=0;fontSize=12;entryX=0.5;entryY=1;entryDx=0;entryDy=0;" edge="1" parent="1" target="5F6_HJQfYUysbNrUYwP5-8">
          <mxGeometry width="50" height="50" relative="1" as="geometry">
            <mxPoint x="-600" y="1270" as="sourcePoint" />
            <mxPoint x="-670" y="640" as="targetPoint" />
          </mxGeometry>
        </mxCell>
        <mxCell id="5F6_HJQfYUysbNrUYwP5-14" value="User" style="text;html=1;align=center;verticalAlign=middle;resizable=0;points=[];autosize=1;strokeColor=none;fillColor=none;fontSize=12;" vertex="1" parent="1">
          <mxGeometry x="-625" y="495" width="50" height="30" as="geometry" />
        </mxCell>
        <mxCell id="5F6_HJQfYUysbNrUYwP5-15" value="业务层" style="rounded=1;whiteSpace=wrap;html=1;fontSize=12;" vertex="1" parent="1">
          <mxGeometry x="-396" y="530" width="100" height="50" as="geometry" />
        </mxCell>
        <mxCell id="5F6_HJQfYUysbNrUYwP5-16" value="web3-service" style="rounded=1;whiteSpace=wrap;html=1;fontSize=12;" vertex="1" parent="1">
          <mxGeometry x="-168" y="530" width="100" height="50" as="geometry" />
        </mxCell>
        <mxCell id="5F6_HJQfYUysbNrUYwP5-17" value="web3-signer-manager" style="rounded=1;whiteSpace=wrap;html=1;fontSize=12;" vertex="1" parent="1">
          <mxGeometry x="257" y="525" width="100" height="50" as="geometry" />
        </mxCell>
        <mxCell id="5F6_HJQfYUysbNrUYwP5-18" value="web3-helm" style="rounded=1;whiteSpace=wrap;html=1;fontSize=12;" vertex="1" parent="1">
          <mxGeometry x="437" y="525" width="100" height="50" as="geometry" />
        </mxCell>
        <mxCell id="5F6_HJQfYUysbNrUYwP5-19" value="k8s" style="rounded=1;whiteSpace=wrap;html=1;fontSize=12;" vertex="1" parent="1">
          <mxGeometry x="647" y="525" width="100" height="50" as="geometry" />
        </mxCell>
        <mxCell id="5F6_HJQfYUysbNrUYwP5-21" value="" style="endArrow=classic;html=1;rounded=0;fontSize=12;" edge="1" parent="1">
          <mxGeometry width="50" height="50" relative="1" as="geometry">
            <mxPoint x="-600" y="730" as="sourcePoint" />
            <mxPoint x="-363" y="730" as="targetPoint" />
          </mxGeometry>
        </mxCell>
        <mxCell id="5F6_HJQfYUysbNrUYwP5-22" value="keystore+password+钱包地址&lt;br&gt;创建验证者" style="text;html=1;align=center;verticalAlign=middle;resizable=0;points=[];autosize=1;strokeColor=none;fillColor=none;fontSize=12;" vertex="1" parent="1">
          <mxGeometry x="-560" y="694" width="180" height="40" as="geometry" />
        </mxCell>
        <mxCell id="5F6_HJQfYUysbNrUYwP5-23" value="" style="endArrow=none;dashed=1;html=1;rounded=0;fontSize=12;" edge="1" parent="1">
          <mxGeometry width="50" height="50" relative="1" as="geometry">
            <mxPoint x="-357" y="1270" as="sourcePoint" />
            <mxPoint x="-363" y="580" as="targetPoint" />
          </mxGeometry>
        </mxCell>
        <mxCell id="5F6_HJQfYUysbNrUYwP5-24" value="" style="endArrow=classic;html=1;rounded=0;fontSize=12;" edge="1" parent="1">
          <mxGeometry width="50" height="50" relative="1" as="geometry">
            <mxPoint x="-600" y="621" as="sourcePoint" />
            <mxPoint x="90" y="620" as="targetPoint" />
          </mxGeometry>
        </mxCell>
        <mxCell id="5F6_HJQfYUysbNrUYwP5-25" value="钱包地址校验" style="text;html=1;align=center;verticalAlign=middle;resizable=0;points=[];autosize=1;strokeColor=none;fillColor=none;fontSize=12;" vertex="1" parent="1">
          <mxGeometry x="-520" y="592" width="100" height="30" as="geometry" />
        </mxCell>
        <mxCell id="5F6_HJQfYUysbNrUYwP5-29" value="" style="endArrow=none;dashed=1;html=1;rounded=0;fontSize=12;entryX=0.5;entryY=1;entryDx=0;entryDy=0;" edge="1" parent="1" target="5F6_HJQfYUysbNrUYwP5-16">
          <mxGeometry width="50" height="50" relative="1" as="geometry">
            <mxPoint x="-118" y="1280" as="sourcePoint" />
            <mxPoint x="-374" y="590" as="targetPoint" />
          </mxGeometry>
        </mxCell>
        <mxCell id="5F6_HJQfYUysbNrUYwP5-30" value="" style="shape=actor;whiteSpace=wrap;html=1;fontSize=24;" vertex="1" parent="1">
          <mxGeometry x="-630" y="1720" width="40" height="60" as="geometry" />
        </mxCell>
        <mxCell id="5F6_HJQfYUysbNrUYwP5-31" value="1.生成keystore和deposit&lt;br&gt;2.用deposit.json质押ETH" style="text;html=1;align=left;verticalAlign=middle;resizable=0;points=[];autosize=1;strokeColor=none;fillColor=none;fontSize=12;" vertex="1" parent="1">
          <mxGeometry x="-780" y="1735" width="160" height="40" as="geometry" />
        </mxCell>
        <mxCell id="5F6_HJQfYUysbNrUYwP5-32" value="User" style="text;html=1;align=center;verticalAlign=middle;resizable=0;points=[];autosize=1;strokeColor=none;fillColor=none;fontSize=12;" vertex="1" parent="1">
          <mxGeometry x="-635" y="1690" width="50" height="30" as="geometry" />
        </mxCell>
        <mxCell id="5F6_HJQfYUysbNrUYwP5-33" value="业务层" style="rounded=1;whiteSpace=wrap;html=1;fontSize=12;" vertex="1" parent="1">
          <mxGeometry x="-473" y="1730" width="100" height="50" as="geometry" />
        </mxCell>
        <mxCell id="5F6_HJQfYUysbNrUYwP5-34" value="web3-exporter" style="rounded=1;whiteSpace=wrap;html=1;fontSize=12;" vertex="1" parent="1">
          <mxGeometry x="37" y="530" width="100" height="50" as="geometry" />
        </mxCell>
        <mxCell id="5F6_HJQfYUysbNrUYwP5-35" value="" style="endArrow=none;dashed=1;html=1;rounded=0;fontSize=12;entryX=0.5;entryY=1;entryDx=0;entryDy=0;" edge="1" parent="1" target="5F6_HJQfYUysbNrUYwP5-34">
          <mxGeometry width="50" height="50" relative="1" as="geometry">
            <mxPoint x="90" y="1280" as="sourcePoint" />
            <mxPoint x="-108" y="590" as="targetPoint" />
          </mxGeometry>
        </mxCell>
        <mxCell id="5F6_HJQfYUysbNrUYwP5-41" value="web3-service" style="rounded=1;whiteSpace=wrap;html=1;fontSize=12;" vertex="1" parent="1">
          <mxGeometry x="-173" y="1729" width="100" height="50" as="geometry" />
        </mxCell>
        <mxCell id="5F6_HJQfYUysbNrUYwP5-42" value="" style="endArrow=classic;html=1;rounded=0;fontSize=12;" edge="1" parent="1">
          <mxGeometry width="50" height="50" relative="1" as="geometry">
            <mxPoint x="90" y="640" as="sourcePoint" />
            <mxPoint x="-600" y="640" as="targetPoint" />
          </mxGeometry>
        </mxCell>
        <mxCell id="5F6_HJQfYUysbNrUYwP5-43" value="ETH1交易数据" style="text;html=1;align=center;verticalAlign=middle;resizable=0;points=[];autosize=1;strokeColor=none;fillColor=none;fontSize=12;" vertex="1" parent="1">
          <mxGeometry x="-63" y="639" width="100" height="30" as="geometry" />
        </mxCell>
        <mxCell id="5F6_HJQfYUysbNrUYwP5-45" value="质押&amp;gt;=32ETH的记录" style="text;html=1;align=center;verticalAlign=middle;resizable=0;points=[];autosize=1;strokeColor=none;fillColor=none;fontSize=12;" vertex="1" parent="1">
          <mxGeometry x="-298" y="639" width="130" height="30" as="geometry" />
        </mxCell>
        <mxCell id="5F6_HJQfYUysbNrUYwP5-46" value="判断是否通过校验" style="text;html=1;align=center;verticalAlign=middle;resizable=0;points=[];autosize=1;strokeColor=none;fillColor=none;fontSize=12;" vertex="1" parent="1">
          <mxGeometry x="-530" y="639" width="120" height="30" as="geometry" />
        </mxCell>
      </root>
    </mxGraphModel>
  </diagram>
</mxfile>
